<svg width="800" height="560" viewBox="0 0 800 560" fill="none" xmlns="http://www.w3.org/2000/svg">
  <rect width="800" height="560" rx="24" fill="#0A1024"/>
  <rect x="28" y="28" width="744" height="504" rx="18" stroke="#22D3EE" stroke-opacity="0.35"/>
  <path d="M76 120H724" stroke="#22D3EE" stroke-opacity="0.35"/>
  <path d="M76 230H724" stroke="#22D3EE" stroke-opacity="0.25"/>
  <path d="M76 340H724" stroke="#22D3EE" stroke-opacity="0.25"/>
  <path d="M76 450H724" stroke="#22D3EE" stroke-opacity="0.25"/>
  <rect x="96" y="82" width="120" height="20" rx="8" fill="#67E8F9" fill-opacity="0.25"/>
  <rect x="236" y="82" width="100" height="20" rx="8" fill="#C4B5FD" fill-opacity="0.28"/>
  <rect x="356" y="82" width="100" height="20" rx="8" fill="#67E8F9" fill-opacity="0.18"/>
  <rect x="96" y="148" width="250" height="64" rx="12" fill="#111A35" stroke="#22D3EE" stroke-opacity="0.25"/>
  <rect x="366" y="148" width="338" height="64" rx="12" fill="#111A35" stroke="#22D3EE" stroke-opacity="0.2"/>
  <rect x="96" y="258" width="170" height="64" rx="12" fill="#111A35" stroke="#22D3EE" stroke-opacity="0.2"/>
  <rect x="286" y="258" width="170" height="64" rx="12" fill="#111A35" stroke="#22D3EE" stroke-opacity="0.2"/>
  <rect x="476" y="258" width="228" height="64" rx="12" fill="#111A35" stroke="#22D3EE" stroke-opacity="0.2"/>
  <rect x="96" y="368" width="608" height="64" rx="12" fill="#111A35" stroke="#C4B5FD" stroke-opacity="0.25"/>
  <circle cx="680" cy="180" r="10" fill="#C4B5FD" fill-opacity="0.8"/>
  <circle cx="652" cy="180" r="10" fill="#67E8F9" fill-opacity="0.8"/>
</svg>
