<svg width="800" height="560" viewBox="0 0 800 560" fill="none" xmlns="http://www.w3.org/2000/svg">
  <defs>
    <linearGradient id="bg" x1="0" y1="0" x2="800" y2="560" gradientUnits="userSpaceOnUse">
      <stop offset="0" stop-color="#F8FAFC"/>
      <stop offset="1" stop-color="#EEF2F7"/>
    </linearGradient>
    <linearGradient id="panel" x1="400" y1="64" x2="400" y2="496" gradientUnits="userSpaceOnUse">
      <stop offset="0" stop-color="#FFFFFF"/>
      <stop offset="1" stop-color="#F6F8FB"/>
    </linearGradient>
  </defs>

  <rect width="800" height="560" rx="24" fill="url(#bg)"/>
  <rect x="40" y="40" width="720" height="480" rx="20" fill="url(#panel)" stroke="#D7DEE8"/>

  <rect x="72" y="78" width="656" height="32" rx="10" fill="#F2F5F9" stroke="#D9E0EA"/>
  <rect x="92" y="88" width="110" height="12" rx="6" fill="#C7D2DF"/>
  <rect x="214" y="88" width="88" height="12" rx="6" fill="#D3DCE7"/>
  <rect x="314" y="88" width="72" height="12" rx="6" fill="#DEE5EE"/>

  <line x1="72" y1="140" x2="728" y2="140" stroke="#E4EAF2"/>
  <line x1="72" y1="244" x2="728" y2="244" stroke="#E7EDF4"/>
  <line x1="72" y1="348" x2="728" y2="348" stroke="#E7EDF4"/>
  <line x1="72" y1="452" x2="728" y2="452" stroke="#E7EDF4"/>

  <rect x="92" y="164" width="274" height="56" rx="12" fill="#FFFFFF" stroke="#D9E1EB"/>
  <rect x="382" y="164" width="326" height="56" rx="12" fill="#FFFFFF" stroke="#D9E1EB"/>

  <rect x="92" y="268" width="186" height="56" rx="12" fill="#FFFFFF" stroke="#D9E1EB"/>
  <rect x="294" y="268" width="186" height="56" rx="12" fill="#FFFFFF" stroke="#D9E1EB"/>
  <rect x="496" y="268" width="212" height="56" rx="12" fill="#FFFFFF" stroke="#D9E1EB"/>

  <rect x="92" y="372" width="616" height="56" rx="12" fill="#FFFFFF" stroke="#D9E1EB"/>

  <circle cx="686" cy="94" r="5" fill="#A7B5C6"/>
  <circle cx="668" cy="94" r="5" fill="#BCC8D6"/>
</svg>
